<svg width="1000" height="1000" viewBox="0 0 1000 1000" fill="none" xmlns="http://www.w3.org/2000/svg">
<mask id="mask0_790_4175" style="mask-type:luminance" maskUnits="userSpaceOnUse" x="98" y="149" width="759" height="796">
<path d="M848.499 645.5C847.499 742.5 803.666 824.5 716.999 891.5C630.332 958.5 542.666 961.667 453.999 901C365.332 840.333 278.999 784.5 194.999 733.5C110.999 682.5 81.9994 609.333 107.999 514C133.999 418.667 170.666 331.5 217.999 252.5C265.332 173.5 333.832 139.833 423.499 151.5C513.166 163.167 608.666 173.5 709.999 182.5C811.332 191.5 859.999 246.667 855.999 348C851.999 449.333 849.499 548.5 848.499 645.5Z" fill="white"/>
</mask>
<g mask="url(#mask0_790_4175)">
<path d="M848.499 645.5C847.499 742.5 803.666 824.5 716.999 891.5C630.332 958.5 542.666 961.667 453.999 901C365.332 840.333 278.999 784.5 194.999 733.5C110.999 682.5 81.9994 609.333 107.999 514C133.999 418.667 170.666 331.5 217.999 252.5C265.332 173.5 333.832 139.833 423.499 151.5C513.166 163.167 608.666 173.5 709.999 182.5C811.332 191.5 859.999 246.667 855.999 348C851.999 449.333 849.499 548.5 848.499 645.5Z" fill="#E1423D"/>
</g>
</svg>
