<svg width="1000" height="1000" viewBox="0 0 1000 1000" fill="none" xmlns="http://www.w3.org/2000/svg">
<mask id="mask0_790_4169" style="mask-type:luminance" maskUnits="userSpaceOnUse" x="97" y="86" width="865" height="840">
<path d="M926.5 651.5C883.5 752.5 814 822.167 718 860.5C622 898.833 520.167 920.333 412.5 925C304.833 929.667 226.5 884 177.5 788C128.5 692 101.833 595.167 97.5 497.5C93.1667 399.833 123.833 314.667 189.5 242C255.167 169.333 336.167 121.667 432.5 98.9999C528.833 76.3332 628 83.9999 730 122C832 160 901 232.5 937 339.5C973 446.5 969.5 550.5 926.5 651.5Z" fill="white"/>
</mask>
<g mask="url(#mask0_790_4169)">
<path d="M926.5 651.5C883.5 752.5 814 822.167 718 860.5C622 898.833 520.167 920.333 412.5 925C304.833 929.667 226.5 884 177.5 788C128.5 692 101.833 595.167 97.5 497.5C93.1667 399.833 123.833 314.667 189.5 242C255.167 169.333 336.167 121.667 432.5 98.9999C528.833 76.3332 628 83.9999 730 122C832 160 901 232.5 937 339.5C973 446.5 969.5 550.5 926.5 651.5Z" fill="#E1423D"/>
</g>
</svg>
